<?xml version="1.0" standalone="no"?>
<!DOCTYPE svg PUBLIC "-//W3C//DTD SVG 20010904//EN"
 "http://www.w3.org/TR/2001/REC-SVG-20010904/DTD/svg10.dtd">
<svg version="1.0" xmlns="http://www.w3.org/2000/svg"
 width="654.000000pt" height="203.000000pt" viewBox="0 0 654.000000 203.000000"
 preserveAspectRatio="xMidYMid meet">

<g transform="translate(0.000000,203.000000) scale(0.100000,-0.100000)"
fill="#000000" stroke="none">
<path d="M1195 2019 c-4 -6 -13 -8 -21 -5 -8 3 -14 1 -14 -4 0 -15 26 -12 40
5 7 8 10 15 7 15 -3 0 -9 -5 -12 -11z"/>
<path d="M3550 2021 c0 -6 5 -13 11 -16 6 -4 8 -13 5 -21 -9 -22 54 -17 89 7
17 12 22 18 12 15 -68 -22 -88 -18 -39 8 27 15 27 15 -25 16 -29 0 -53 -4 -53
-9z"/>
<path d="M4081 2021 c-8 -5 -9 -11 -3 -15 5 -3 15 1 22 9 14 16 3 20 -19 6z"/>
<path d="M4818 2023 c6 -2 18 -2 25 0 6 3 1 5 -13 5 -14 0 -19 -2 -12 -5z"/>
<path d="M890 2010 c0 -5 5 -10 10 -10 6 0 10 5 10 10 0 6 -4 10 -10 10 -5 0
-10 -4 -10 -10z"/>
<path d="M4400 2009 c0 -5 5 -7 10 -4 6 3 10 8 10 11 0 2 -4 4 -10 4 -5 0 -10
-5 -10 -11z"/>
<path d="M568 1993 c7 -3 16 -2 19 1 4 3 -2 6 -13 5 -11 0 -14 -3 -6 -6z"/>
<path d="M1765 1980 c-16 -7 -14 -8 12 -7 17 1 29 5 26 10 -5 9 -12 8 -38 -3z"/>
<path d="M978 1973 c7 -3 16 -2 19 1 4 3 -2 6 -13 5 -11 0 -14 -3 -6 -6z"/>
<path d="M698 1963 c6 -2 18 -2 25 0 6 3 1 5 -13 5 -14 0 -19 -2 -12 -5z"/>
<path d="M3738 1943 c7 -3 16 -2 19 1 4 3 -2 6 -13 5 -11 0 -14 -3 -6 -6z"/>
<path d="M740 1931 c0 -13 47 -19 62 -9 10 7 9 8 -4 4 -10 -3 -20 -1 -23 4 -8
12 -35 13 -35 1z"/>
<path d="M398 1923 c6 -2 18 -2 25 0 6 3 1 5 -13 5 -14 0 -19 -2 -12 -5z"/>
<path d="M3788 1923 c7 -3 16 -2 19 1 4 3 -2 6 -13 5 -11 0 -14 -3 -6 -6z"/>
<path d="M3940 1900 c0 -5 5 -10 10 -10 6 0 10 5 10 10 0 6 -4 10 -10 10 -5 0
-10 -4 -10 -10z"/>
<path d="M764 1889 c-3 -5 6 -9 20 -9 31 0 34 6 6 13 -11 3 -23 1 -26 -4z"/>
<path d="M2828 1893 c7 -3 16 -2 19 1 4 3 -2 6 -13 5 -11 0 -14 -3 -6 -6z"/>
<path d="M428 1883 c7 -3 16 -2 19 1 4 3 -2 6 -13 5 -11 0 -14 -3 -6 -6z"/>
<path d="M3478 1863 c7 -3 16 -2 19 1 4 3 -2 6 -13 5 -11 0 -14 -3 -6 -6z"/>
<path d="M3538 1860 c-4 -13 -48 -15 -104 -5 -36 6 -42 5 -46 -12 -5 -18 -15
-20 -89 -21 -160 -3 -268 -20 -254 -41 3 -5 -4 -12 -15 -16 -11 -3 -20 -11
-20 -16 0 -5 -8 -9 -19 -9 -12 0 -18 -7 -17 -17 0 -12 -7 -19 -22 -21 -18 -3
-21 -8 -17 -23 9 -29 -4 -81 -18 -72 -7 4 -6 -1 2 -10 11 -14 11 -17 0 -17 -9
0 -10 -3 -3 -8 6 -4 11 -18 11 -32 1 -41 18 -72 76 -132 23 -24 22 -31 -3 -18
-11 6 -20 7 -20 3 0 -4 -81 -8 -179 -8 -150 0 -177 2 -168 14 9 11 7 12 -8 9
-11 -2 -19 -9 -18 -16 2 -8 -21 -10 -85 -6 -48 2 -100 4 -117 4 -28 -1 -108
-1 -130 0 -5 0 -103 -1 -217 -3 -114 -2 -202 1 -195 5 13 8 -6 11 -59 8 -18
-1 -35 3 -39 9 -9 16 -25 13 -25 -4 0 -18 -40 -20 -59 -2 -11 10 -13 10 -7 0
8 -15 20 -14 -256 -19 -137 -2 -198 0 -198 8 0 7 -5 6 -15 -2 -19 -16 -45 -6
-45 18 0 32 -12 33 -48 1 -26 -23 -37 -28 -43 -18 -6 10 -11 10 -22 0 -8 -6
-26 -9 -39 -6 -12 3 -70 7 -128 8 -98 3 -108 5 -142 31 -37 28 -81 89 -81 114
0 8 -6 10 -16 6 -9 -4 -31 -9 -49 -12 -19 -2 -32 -10 -32 -18 0 -11 -12 -13
-52 -10 -29 3 -64 8 -76 12 -22 6 -23 5 -11 -14 10 -16 20 -19 43 -15 49 9 20
-13 -54 -40 -36 -13 -71 -22 -78 -20 -7 3 -18 0 -25 -5 -17 -14 -165 -63 -198
-65 -15 -1 -25 -5 -22 -9 2 -5 -6 -8 -19 -8 -29 0 -54 -18 -62 -45 -5 -17 -1
-21 24 -23 37 -3 284 -82 288 -93 2 -4 9 -6 15 -3 14 5 217 -73 266 -102 26
-16 33 -16 56 -4 14 7 21 16 15 20 -6 4 -4 14 6 28 11 16 20 20 27 13 11 -8
61 -15 95 -12 31 3 7 19 -40 27 l-53 9 37 28 c21 16 55 31 76 34 32 4 43 1 65
-21 19 -19 33 -25 54 -21 74 13 93 18 93 27 0 6 -7 8 -15 5 -8 -4 -17 -2 -20
3 -4 6 14 10 44 10 42 0 53 -4 74 -30 18 -21 34 -30 54 -29 17 1 21 3 11 6
-33 8 -18 22 19 19 32 -3 39 -8 49 -37 18 -49 17 -79 -2 -79 -14 0 -14 -2 0
-15 19 -19 10 -45 -15 -45 -10 0 -19 -3 -19 -7 0 -5 -11 -8 -25 -8 -14 0 -25
3 -25 7 0 4 -8 5 -17 3 -10 -3 -4 2 12 10 l30 15 -35 -1 c-41 -2 -70 8 -70 25
0 6 -21 24 -47 40 -66 40 -122 40 -163 1 -36 -34 -39 -75 -10 -122 11 -18 17
-33 13 -33 -4 0 1 -6 12 -13 11 -9 15 -19 10 -27 -5 -8 -4 -11 2 -7 14 9 57
-39 50 -56 -3 -9 1 -14 10 -13 9 0 18 -5 20 -11 3 -7 -3 -13 -12 -13 -9 0 -13
-5 -9 -11 4 -7 1 -10 -7 -7 -8 3 -25 1 -39 -4 l-25 -9 24 25 c26 28 23 33 -9
14 -15 -10 -22 -9 -37 4 -32 28 -83 49 -103 43 -12 -4 -20 -2 -20 4 0 6 7 11
17 11 9 0 14 2 11 5 -8 9 -58 -6 -58 -16 0 -5 18 -12 40 -15 22 -4 47 -12 57
-19 15 -11 15 -15 4 -29 -7 -9 -20 -16 -27 -16 -8 0 -14 -4 -14 -9 0 -5 -8
-12 -18 -15 -11 -3 -8 -4 8 -4 14 1 33 -2 42 -6 9 -4 22 -5 27 -1 6 3 8 0 5
-8 -5 -14 24 -33 34 -22 3 3 0 5 -6 5 -7 0 -12 5 -12 10 0 6 7 10 15 10 8 0
15 -5 15 -11 0 -8 5 -7 15 1 12 10 21 10 38 2 12 -7 48 -11 80 -10 54 2 59 0
97 -37 28 -28 36 -41 27 -47 -8 -5 -4 -8 10 -8 13 0 30 -11 38 -24 9 -13 29
-29 45 -36 17 -7 30 -16 30 -20 0 -4 22 -25 50 -46 34 -26 46 -40 37 -46 -8
-5 -4 -8 11 -8 12 0 31 -9 42 -20 11 -11 20 -18 20 -15 0 3 18 -7 40 -21 l40
-27 21 24 c11 13 32 37 46 52 28 32 26 37 -10 41 -42 4 -202 120 -191 137 2 4
-6 13 -18 20 -53 27 -97 82 -76 95 7 5 8 3 3 -6 -5 -9 -4 -11 4 -6 16 10 7 21
-29 36 -33 14 -40 29 -12 31 9 1 4 5 -13 9 -28 7 -28 8 -5 9 14 0 35 -6 47
-14 20 -14 53 -11 53 4 0 4 27 13 60 20 34 8 58 16 56 19 -9 8 64 87 87 94
l22 6 -22 1 c-20 1 -22 5 -16 34 7 35 16 44 53 53 49 11 66 23 25 17 -22 -3
-45 -10 -51 -14 -6 -5 -16 -3 -22 3 -14 14 -16 72 -3 63 5 -3 12 -1 15 4 3 5
-4 11 -15 14 -17 5 -20 12 -18 49 1 24 4 48 6 53 2 6 35 9 82 7 l78 -3 2 -52
c0 -31 -4 -54 -12 -59 -9 -6 -9 -8 0 -8 9 0 10 -7 3 -25 -6 -16 -6 -25 0 -25
17 0 11 -28 -7 -33 -17 -4 -17 -5 -1 -6 14 -1 18 -10 16 -43 0 -24 -6 -46 -12
-50 -8 -5 -7 -8 2 -8 8 0 12 -19 12 -60 0 -46 -4 -61 -17 -69 -17 -10 -17 -10
0 -11 22 0 22 -16 0 -29 -17 -10 -17 -12 -1 -24 18 -14 15 -57 -4 -57 -6 0 -7
-7 -4 -15 7 -19 -37 -39 -65 -30 -26 9 -24 -12 6 -50 13 -18 21 -35 18 -39 -4
-3 0 -6 8 -6 8 0 33 -18 54 -40 45 -46 75 -51 134 -21 38 20 101 83 101 102 0
6 4 8 8 5 5 -3 7 21 6 52 -1 35 2 60 9 64 8 5 7 8 -4 8 -10 0 -20 12 -24 27
-9 39 -16 293 -7 293 4 0 7 24 7 53 0 42 6 60 29 90 15 20 33 34 40 31 6 -3 0
4 -13 15 -14 13 -18 21 -10 21 22 1 193 1 207 1 15 -1 16 -53 1 -68 -8 -8 -8
-17 0 -31 9 -17 7 -21 -12 -27 -12 -4 -43 -8 -69 -9 -46 -1 -67 -10 -55 -22 4
-4 13 -1 21 5 12 10 21 8 45 -10 18 -13 38 -20 50 -16 16 4 22 0 27 -18 8 -34
-12 -68 -34 -56 -20 11 -74 3 -66 -10 3 -5 -6 -14 -19 -20 -25 -11 -47 -47
-47 -74 0 -8 -6 -15 -12 -15 -7 0 -2 -7 10 -16 12 -8 20 -19 17 -24 -4 -6 47
-60 119 -125 32 -30 115 -58 173 -61 35 -1 60 2 57 7 -3 5 6 14 20 20 14 7 23
16 20 20 -3 5 -2 15 3 22 4 6 8 21 8 32 0 15 6 19 24 17 12 -2 35 1 50 6 14 6
46 13 70 17 l45 6 -28 -22 c-17 -13 -36 -19 -51 -17 -13 3 -22 1 -19 -3 9 -15
61 -10 74 6 8 10 22 13 39 9 20 -4 23 -3 11 5 -13 10 -13 11 0 11 17 0 40 -43
40 -74 -1 -33 -34 -70 -58 -64 -11 3 -26 2 -33 -2 -9 -6 -1 -23 34 -63 31 -36
45 -61 41 -71 -4 -11 -2 -15 8 -11 8 3 27 -6 42 -20 33 -31 48 -31 111 -1 72
34 106 74 113 133 3 26 10 51 16 55 7 5 7 8 -3 8 -8 0 -11 7 -8 20 3 10 1 20
-4 22 -5 2 -10 17 -11 33 -1 17 -6 36 -11 42 -5 7 -12 43 -15 79 -4 50 -2 68
9 75 10 6 10 9 2 9 -34 0 -3 204 35 232 21 16 28 48 10 49 -7 1 1 5 17 8 17 4
34 5 40 2 5 -2 30 -4 55 -3 25 1 39 -1 33 -4 -18 -8 -16 -24 3 -39 10 -7 16
-25 15 -46 -1 -19 -1 -51 -1 -71 0 -27 -4 -38 -17 -41 -17 -4 -17 -5 0 -6 11
-1 17 -9 17 -27 0 -15 -8 -33 -17 -40 -17 -13 -17 -13 1 -14 11 0 17 -3 14 -6
-4 -3 -2 -18 2 -34 4 -16 5 -31 2 -35 -8 -7 -9 -13 -11 -50 -1 -16 -7 -25 -18
-26 -14 0 -13 -2 5 -9 22 -10 24 -16 24 -83 0 -37 -19 -63 -61 -87 -11 -6 -8
-15 14 -44 15 -20 22 -36 16 -36 -20 0 -11 -17 16 -29 22 -10 24 -14 12 -23
-11 -8 -11 -9 3 -5 9 3 22 -1 28 -9 7 -8 22 -14 34 -14 35 0 120 45 148 79 15
17 36 31 46 31 11 0 22 6 25 14 4 10 0 12 -15 8 -17 -4 -19 -1 -14 16 4 11 0
63 -9 116 -19 121 -20 114 13 119 l27 4 -26 2 c-33 1 -40 24 -38 116 1 59 4
65 23 66 17 1 17 2 4 6 -27 7 -22 23 7 23 14 0 25 5 25 11 0 7 -11 9 -26 6
-24 -4 -26 -3 -20 27 7 37 49 74 93 82 39 7 34 24 -7 24 -38 0 -50 29 -12 32
15 0 37 0 49 -1 21 -2 22 3 25 76 2 43 7 78 13 78 14 0 14 -58 1 -67 -7 -5 -7
-8 2 -8 6 0 12 -6 12 -13 0 -7 13 -28 30 -47 34 -41 36 -47 13 -53 -11 -3 -8
-5 9 -6 38 -1 120 -65 105 -80 -12 -12 -57 -15 -57 -3 0 9 -49 8 -72 -2 -9 -4
-22 -5 -28 -1 -5 3 -10 1 -10 -4 0 -6 -7 -11 -15 -11 -8 0 -15 -4 -15 -10 0
-5 -12 -10 -27 -10 -16 0 -23 -4 -17 -8 7 -4 12 -23 11 -42 0 -19 3 -49 7 -67
7 -30 5 -33 -26 -42 -20 -7 -23 -9 -8 -7 14 2 34 7 45 12 18 7 18 6 6 -9 -7
-9 -9 -17 -4 -17 5 0 57 -48 116 -106 l107 -106 -76 4 c-70 3 -75 2 -72 -17 3
-18 10 -20 93 -18 103 2 128 -2 105 -18 -12 -9 -12 -10 3 -5 11 4 37 -7 69
-28 46 -31 48 -35 27 -39 -19 -3 -17 -5 9 -6 17 0 32 -5 32 -11 0 -5 6 -10 13
-10 7 0 32 -14 56 -31 l42 -32 45 44 c42 41 43 44 26 60 -10 9 -28 20 -40 23
-12 4 -21 12 -19 19 1 6 -8 13 -21 15 -12 2 -20 8 -17 13 4 5 -3 9 -15 9 -12
0 -18 5 -15 10 3 6 -2 10 -12 10 -20 0 -93 68 -93 87 0 6 9 13 20 16 11 3 20
11 20 18 0 10 -3 10 -12 1 -20 -20 -63 -14 -89 14 l-24 26 55 -5 c30 -2 64 -7
75 -11 11 -3 27 -2 35 4 13 9 13 11 0 21 -13 9 -12 10 3 5 9 -3 17 -1 17 4 0
6 6 10 13 11 17 0 138 78 181 116 49 44 97 121 91 147 -3 12 -7 33 -9 48 -6
39 -71 132 -119 172 l-42 35 24 25 c13 14 26 25 30 24 21 -2 20 5 -3 23 -22
17 -25 24 -14 31 10 8 9 9 -4 5 -11 -4 -31 10 -60 41 -56 59 -116 109 -193
157 -33 21 -62 41 -65 45 -3 3 -36 19 -74 36 -61 26 -65 29 -38 32 34 4 88 52
58 52 -9 0 -14 -4 -11 -10 3 -5 1 -10 -5 -10 -6 0 -13 7 -16 15 -4 8 -16 15
-28 14 -20 0 -19 -1 4 -12 22 -10 17 -12 -44 -15 -39 -2 -74 2 -80 8 -7 7 0
10 22 10 18 0 32 4 32 9 0 14 -18 23 -22 11z m47 -60 c-3 -5 -12 -7 -20 -3
-21 7 -19 13 6 13 11 0 18 -4 14 -10z m-112 -166 c4 -4 35 -8 69 -8 35 -1 88
-11 118 -21 l55 -19 -32 -8 c-18 -5 -35 -13 -39 -19 -4 -8 -1 -8 12 -2 28 14
114 4 114 -13 0 -8 6 -11 18 -7 9 3 14 2 10 -2 -5 -5 9 -16 30 -26 20 -9 53
-31 72 -49 29 -26 30 -29 8 -16 -15 9 -33 16 -39 16 -7 0 -20 7 -29 15 -16 15
-104 21 -150 11 -14 -4 -41 -9 -60 -12 -19 -4 -42 -8 -50 -9 -8 -2 -19 -4 -24
-4 -4 -1 -6 -7 -3 -15 4 -9 -3 -14 -21 -14 -55 -1 -96 -10 -100 -20 -2 -7 -15
-9 -33 -5 -24 4 -28 3 -23 -10 5 -13 -4 -15 -50 -14 -31 1 -56 4 -56 8 0 4 -9
9 -20 12 -11 3 -20 1 -20 -4 0 -5 -7 -9 -16 -9 -12 0 -15 6 -11 21 4 16 3 18
-7 9 -10 -7 -17 -6 -26 5 -7 8 -9 15 -6 15 4 0 0 8 -9 17 -13 12 -16 28 -13
65 9 91 57 117 214 118 61 0 114 -3 117 -6z m464 -322 c27 -15 47 -65 39 -98
-11 -43 -37 -74 -61 -74 -13 0 -25 -5 -27 -12 -5 -14 -60 15 -105 56 -44 40
-44 75 1 114 30 26 41 30 83 27 27 -1 59 -7 70 -13z m-2677 -101 c0 -15 -54
-19 -73 -6 -18 13 -16 14 19 17 43 4 54 1 54 -11z m1388 -32 c-1 -28 -6 -39
-17 -39 -14 -1 -14 -2 2 -14 12 -10 17 -27 17 -64 0 -42 -3 -52 -20 -57 -12
-4 -26 0 -36 9 -17 18 -34 21 -34 7 0 -5 -8 -12 -17 -15 -15 -4 -15 -5 2 -4
59 1 63 -19 5 -28 -22 -4 -40 -9 -40 -13 0 -3 -29 -7 -65 -8 -65 -3 -65 -3
-61 22 3 14 0 27 -5 30 -5 4 -5 14 1 26 6 10 7 19 3 20 -4 1 3 4 16 8 l25 7
-25 25 c-25 24 -25 25 -10 76 15 52 15 52 61 55 25 2 80 2 122 0 l78 -4 -2
-39z m-518 -104 c-7 -8 -22 -15 -34 -15 -20 0 -19 1 4 14 34 19 45 19 30 1z
m1560 -5 c-20 -13 -33 -13 -25 0 3 6 14 10 23 10 15 0 15 -2 2 -10z m40 -48
c-27 -4 -34 2 -26 24 6 15 8 15 27 -2 l21 -19 -22 -3z m-2905 -252 c-3 -5 -11
-10 -16 -10 -6 0 -7 5 -4 10 3 6 11 10 16 10 6 0 7 -4 4 -10z m160 -20 c17 -7
14 -9 -13 -9 -20 -1 -31 3 -27 9 7 12 13 12 40 0z"/>
<path d="M3228 1603 c7 -3 16 -2 19 1 4 3 -2 6 -13 5 -11 0 -14 -3 -6 -6z"/>
<path d="M3283 1583 c9 -2 23 -2 30 0 6 3 -1 5 -18 5 -16 0 -22 -2 -12 -5z"/>
<path d="M3408 1573 c6 -2 18 -2 25 0 6 3 1 5 -13 5 -14 0 -19 -2 -12 -5z"/>
<path d="M3348 1563 c7 -3 16 -2 19 1 4 3 -2 6 -13 5 -11 0 -14 -3 -6 -6z"/>
<path d="M3332 1441 c-11 -6 -10 -10 3 -15 26 -9 90 -7 80 3 -15 14 -69 22
-83 12z"/>
<path d="M3893 1273 c9 -2 25 -2 35 0 9 3 1 5 -18 5 -19 0 -27 -2 -17 -5z"/>
<path d="M2438 1093 c7 -3 16 -2 19 1 4 3 -2 6 -13 5 -11 0 -14 -3 -6 -6z"/>
<path d="M2420 981 c-22 -6 -23 -8 -7 -14 24 -9 24 -9 31 8 3 8 4 15 3 14 -1
-1 -13 -4 -27 -8z"/>
<path d="M425 1850 c3 -5 11 -10 16 -10 6 0 7 5 4 10 -3 6 -11 10 -16 10 -6 0
-7 -4 -4 -10z"/>
<path d="M2650 1850 c0 -5 6 -10 14 -10 8 0 18 5 21 10 3 6 -3 10 -14 10 -12
0 -21 -4 -21 -10z"/>
<path d="M8 1823 c7 -3 16 -2 19 1 4 3 -2 6 -13 5 -11 0 -14 -3 -6 -6z"/>
<path d="M210 1820 c0 -5 4 -10 9 -10 6 0 13 5 16 10 3 6 -1 10 -9 10 -9 0
-16 -4 -16 -10z"/>
<path d="M3998 1823 c7 -3 16 -2 19 1 4 3 -2 6 -13 5 -11 0 -14 -3 -6 -6z"/>
<path d="M5488 1823 c7 -3 16 -2 19 1 4 3 -2 6 -13 5 -11 0 -14 -3 -6 -6z"/>
<path d="M328 1813 c7 -3 16 -2 19 1 4 3 -2 6 -13 5 -11 0 -14 -3 -6 -6z"/>
<path d="M1298 1813 c7 -3 16 -2 19 1 4 3 -2 6 -13 5 -11 0 -14 -3 -6 -6z"/>
<path d="M938 1793 c6 -2 18 -2 25 0 6 3 1 5 -13 5 -14 0 -19 -2 -12 -5z"/>
<path d="M2790 1790 c-8 -5 -10 -10 -5 -10 6 0 17 5 25 10 8 5 11 10 5 10 -5
0 -17 -5 -25 -10z"/>
<path d="M4648 1783 c6 -2 18 -2 25 0 6 3 1 5 -13 5 -14 0 -19 -2 -12 -5z"/>
<path d="M4758 1783 c7 -3 16 -2 19 1 4 3 -2 6 -13 5 -11 0 -14 -3 -6 -6z"/>
<path d="M5309 1777 c15 -19 46 -23 56 -7 3 6 -3 10 -14 10 -10 0 -28 3 -38 7
-16 6 -16 5 -4 -10z"/>
<path d="M5675 1780 c3 -5 12 -7 20 -3 21 7 19 13 -6 13 -11 0 -18 -4 -14 -10z"/>
<path d="M190 1770 c-13 -8 -12 -10 3 -10 9 0 17 5 17 10 0 12 -1 12 -20 0z"/>
<path d="M3847 1769 c7 -7 15 -10 18 -7 3 3 -2 9 -12 12 -14 6 -15 5 -6 -5z"/>
<path d="M3900 1770 c0 -5 5 -10 10 -10 6 0 10 5 10 10 0 6 -4 10 -10 10 -5 0
-10 -4 -10 -10z"/>
<path d="M4530 1770 l-25 -8 28 -1 c15 -1 27 4 27 9 0 6 -1 10 -2 9 -2 -1 -14
-5 -28 -9z"/>
<path d="M1412 1765 c3 -3 15 -7 27 -10 11 -2 26 -7 31 -10 6 -3 7 1 4 9 -4
10 -18 16 -37 16 -17 0 -28 -2 -25 -5z"/>
<path d="M1888 1763 c6 -2 18 -2 25 0 6 3 1 5 -13 5 -14 0 -19 -2 -12 -5z"/>
<path d="M1948 1763 c7 -3 16 -2 19 1 4 3 -2 6 -13 5 -11 0 -14 -3 -6 -6z"/>
<path d="M2218 1763 c7 -3 16 -2 19 1 4 3 -2 6 -13 5 -11 0 -14 -3 -6 -6z"/>
<path d="M4618 1763 c7 -3 16 -2 19 1 4 3 -2 6 -13 5 -11 0 -14 -3 -6 -6z"/>
<path d="M4820 1760 c0 -5 5 -10 11 -10 5 0 7 5 4 10 -3 6 -8 10 -11 10 -2 0
-4 -4 -4 -10z"/>
<path d="M68 1753 c7 -3 16 -2 19 1 4 3 -2 6 -13 5 -11 0 -14 -3 -6 -6z"/>
<path d="M15 1740 c-3 -5 -1 -10 4 -10 6 0 11 5 11 10 0 6 -2 10 -4 10 -3 0
-8 -4 -11 -10z"/>
<path d="M2877 1735 c6 -17 34 -28 45 -17 4 4 -5 13 -21 19 -24 8 -28 8 -24
-2z"/>
<path d="M5816 1735 c-3 -8 -15 -15 -28 -15 -16 0 -19 -3 -11 -11 8 -8 17 -7
34 5 24 15 27 16 54 16 8 0 15 5 15 10 0 16 -57 12 -64 -5z"/>
<path d="M1298 1733 c6 -2 18 -2 25 0 6 3 1 5 -13 5 -14 0 -19 -2 -12 -5z"/>
<path d="M1978 1733 c6 -2 18 -2 25 0 6 3 1 5 -13 5 -14 0 -19 -2 -12 -5z"/>
<path d="M4710 1730 c8 -5 22 -9 30 -9 10 0 8 3 -5 9 -27 12 -43 12 -25 0z"/>
<path d="M5630 1730 c8 -5 20 -10 25 -10 6 0 3 5 -5 10 -8 5 -19 10 -25 10 -5
0 -3 -5 5 -10z"/>
<path d="M5932 1723 c-8 -7 -8 -13 -2 -13 5 0 10 -4 10 -9 0 -5 -26 -7 -57 -5
-59 4 -129 -18 -127 -41 0 -14 -27 -40 -51 -50 -13 -5 -16 -9 -7 -12 10 -4 10
-10 -3 -29 -15 -23 -14 -26 9 -49 14 -14 22 -25 19 -25 -4 0 0 -6 9 -12 19
-16 39 -72 29 -84 -3 -5 -16 -10 -28 -12 -16 -2 -26 5 -37 27 -12 22 -21 28
-36 24 -11 -3 -21 -9 -21 -14 -1 -5 -2 -15 -3 -21 -1 -7 -8 -11 -16 -9 -31 7
-134 10 -123 3 6 -4 -79 -6 -190 -6 -174 2 -202 4 -213 18 -12 18 -55 14 -81
-6 -13 -11 -87 -14 -173 -9 -30 2 -63 1 -73 -4 -12 -5 -420 -1 -522 6 -41 3
-127 -6 -131 -13 -4 -5 3 -20 15 -32 22 -23 28 -42 11 -31 -5 3 -10 1 -10 -4
0 -6 6 -11 14 -11 8 0 27 -15 43 -34 15 -18 38 -37 51 -40 16 -5 22 -15 22
-36 0 -16 -5 -30 -11 -32 -7 -2 -7 -12 -1 -28 13 -37 5 -55 -31 -72 -29 -14
-30 -17 -12 -23 47 -15 50 -21 50 -81 l0 -59 -35 2 c-34 2 -34 1 -5 -5 29 -7
30 -10 30 -59 l1 -52 -52 -11 c-39 -8 -67 -8 -120 4 -38 7 -70 13 -72 11 -1
-1 13 -10 33 -19 46 -22 106 -28 159 -16 47 10 59 0 63 -61 3 -49 -14 -69 -60
-71 -20 -1 -37 -6 -37 -11 0 -5 25 -36 55 -69 30 -32 54 -64 52 -70 -1 -6 13
-16 31 -21 47 -14 100 5 155 56 25 23 52 41 59 38 9 -2 10 0 3 8 -19 19 -5 81
19 91 12 4 28 15 35 24 7 9 21 16 30 16 11 1 8 7 -11 21 -35 26 -36 41 -3 33
21 -5 24 -3 18 12 -5 13 -3 16 10 11 9 -3 19 -2 22 3 6 10 -7 14 -32 11 -6 -1
-14 3 -18 9 -3 5 -11 10 -17 10 -7 0 -6 -5 2 -14 10 -13 7 -13 -19 -3 -17 6
-31 15 -31 19 0 4 -9 8 -21 8 -13 0 -20 6 -18 18 1 9 -1 25 -6 35 -4 9 -4 25
1 35 9 20 11 28 13 43 0 6 8 8 18 5 16 -6 16 -6 0 12 -9 10 -18 33 -19 52 -2
19 -6 37 -10 40 -4 3 -4 19 0 35 7 24 15 31 43 36 19 4 28 7 21 8 -7 0 -19 7
-26 14 -12 10 -11 16 1 40 7 15 11 32 8 37 -4 6 53 9 152 8 87 -1 137 -4 111
-6 -27 -2 -48 -8 -48 -14 0 -6 -13 -8 -30 -6 -19 3 -29 1 -27 -6 2 -6 15 -10
28 -8 13 2 44 6 69 9 25 3 52 11 61 19 13 12 47 14 160 12 l144 -3 2 -57 c2
-57 -8 -72 -32 -49 -6 5 -44 18 -85 29 -116 30 -202 21 -290 -30 -8 -4 -26
-14 -40 -20 -14 -7 -44 -30 -66 -53 -38 -37 -41 -44 -38 -84 2 -24 11 -57 19
-74 8 -17 12 -33 7 -36 -8 -6 19 -38 35 -43 5 -2 7 -9 5 -16 -2 -7 3 -12 10
-10 7 2 46 -24 87 -56 130 -104 207 -118 344 -61 12 5 17 2 17 -9 0 -9 -11
-21 -24 -26 -32 -12 -41 -28 -26 -45 10 -12 9 -15 -8 -15 -11 0 -22 -6 -25
-14 -3 -8 -18 -16 -34 -19 l-28 -4 31 -2 c16 0 34 3 40 8 5 4 23 11 39 15 27
6 28 5 13 -7 -25 -19 -22 -27 7 -27 34 0 62 -17 112 -69 32 -33 47 -42 60 -36
15 7 13 9 -12 15 l-30 6 30 6 c17 4 32 2 33 -3 2 -5 8 -9 13 -9 4 0 6 6 3 14
-4 9 4 13 28 14 59 2 68 3 74 14 5 7 -8 9 -40 4 -50 -8 -60 -1 -21 14 14 5 25
16 24 22 -1 7 1 29 5 48 4 19 8 43 10 53 3 25 22 42 30 28 9 -14 53 -14 61 -1
4 6 -7 10 -24 10 -32 0 -42 16 -16 26 14 6 13 8 -2 20 -10 7 -26 14 -35 14
-10 0 -18 3 -19 8 0 4 -3 16 -6 27 -11 44 -15 85 -20 193 -4 84 -2 117 7 125
8 7 10 8 7 1 -8 -14 30 -11 45 4 8 8 6 9 -10 5 -45 -11 -48 57 -4 109 8 10 12
24 9 32 -5 12 9 15 76 18 117 4 134 1 141 -27 4 -14 15 -29 26 -35 16 -9 22
-6 35 20 13 25 22 31 43 28 18 -2 26 -8 23 -18 -2 -8 -5 -23 -6 -33 -1 -9 -7
-23 -13 -29 -7 -7 -12 -18 -12 -25 0 -7 -3 -13 -7 -13 -5 0 -16 -7 -27 -15
-17 -13 -17 -16 15 -68 21 -35 52 -67 83 -87 41 -28 55 -32 93 -27 39 4 46 2
50 -14 6 -21 23 -25 39 -9 6 6 22 6 44 0 42 -12 52 -5 16 11 -27 13 -33 24
-17 33 11 7 77 -19 86 -34 9 -14 21 -12 40 6 10 11 24 14 41 10 15 -4 23 -3
20 2 -8 13 -55 21 -62 11 -3 -5 -12 -9 -21 -9 -13 0 -13 3 -3 15 7 9 10 18 6
22 -3 3 -6 1 -6 -5 0 -8 -12 -10 -32 -8 -18 3 -39 5 -46 5 -7 1 -11 5 -8 9 3
5 18 7 34 4 17 -2 33 1 37 8 5 9 2 10 -13 6 -11 -4 -23 -2 -27 4 -3 6 3 10 14
10 12 0 21 4 21 9 0 5 6 11 13 14 6 2 1 2 -13 0 -24 -4 -24 -4 -6 16 11 12 25
21 31 21 7 0 16 8 19 17 5 12 9 14 18 5 18 -18 80 -14 124 8 31 15 35 19 16
20 -12 0 -31 -6 -42 -12 -17 -11 -22 -10 -30 1 -7 12 -11 12 -24 2 -8 -7 -21
-11 -28 -8 -20 7 57 37 96 37 49 0 87 -16 80 -34 -3 -8 3 -19 15 -25 28 -15
40 -13 18 3 -16 12 -16 14 -1 20 9 4 14 13 10 21 -3 9 0 15 9 15 13 0 39 12
65 28 5 4 -21 22 -32 22 -4 0 -5 -6 -2 -14 7 -20 -36 -33 -47 -15 -5 8 -9 10
-9 5 0 -5 -7 -3 -15 4 -12 10 -13 16 -3 28 11 13 10 14 -8 8 -11 -3 -36 0 -55
8 -31 13 -42 13 -104 -5 -39 -10 -75 -26 -81 -34 -15 -20 -55 -34 -92 -31 -26
2 -29 0 -19 -12 10 -12 6 -13 -23 -7 -35 8 -85 50 -76 64 3 4 -1 8 -8 8 -14 0
-14 -7 -1 -77 2 -14 2 -19 -1 -12 -3 6 -9 10 -14 7 -20 -12 -41 28 -38 74 3
43 6 47 42 64 53 25 108 11 131 -33 15 -29 30 -38 37 -22 6 15 80 52 104 52
13 0 24 4 24 9 0 17 120 51 228 66 52 7 85 34 45 36 -10 1 -47 2 -83 4 -79 3
-133 14 -141 27 -3 5 -21 12 -40 15 -46 7 -111 41 -103 54 3 6 0 9 -7 8 -8 -1
-23 2 -33 6 -13 6 -21 5 -24 -3 -2 -6 -12 -22 -23 -36 -17 -21 -29 -26 -68
-26 -66 0 -91 20 -91 74 0 29 6 48 18 59 26 23 46 22 33 -1 -5 -10 -6 -24 -1
-32 7 -11 12 -10 27 8 41 51 107 45 197 -17 26 -18 66 -36 88 -38 26 -4 35 -9
26 -14 -21 -13 34 -4 59 9 12 7 28 12 35 12 18 0 64 49 73 78 5 17 2 22 -13
22 -11 0 -22 -7 -26 -15 -8 -21 -134 -21 -162 0 -10 8 -26 15 -35 15 -24 0
-159 153 -159 180 0 6 -4 8 -10 5 -5 -3 -10 -2 -10 3 0 16 -35 20 -48 5z
m-172 -422 c0 -23 -25 -34 -39 -17 -7 9 -7 16 1 24 18 18 38 14 38 -7z m675 9
c3 -5 1 -10 -4 -10 -6 0 -11 5 -11 10 0 6 2 10 4 10 3 0 8 -4 11 -10z m-1316
-326 c2 -2 6 -20 8 -39 3 -33 2 -35 -39 -46 -53 -16 -56 -18 -38 -30 12 -8 11
-9 -5 -7 -12 2 -19 -2 -17 -9 1 -7 -6 -13 -15 -13 -9 0 -24 -7 -34 -16 -19
-18 -132 -36 -137 -23 -2 5 -10 9 -18 9 -8 0 -14 7 -14 15 0 8 -7 15 -15 15
-19 0 -19 24 0 40 9 8 30 10 57 6 l43 -7 -29 17 c-43 24 -14 36 63 26 33 -5
58 -5 55 0 -3 4 -23 8 -44 8 -81 0 -50 26 65 55 43 10 101 10 114 -1z m-572
-270 c21 -16 31 -30 25 -36 -13 -13 -71 23 -69 44 2 23 4 23 44 -8z m890 -40
c-3 -3 -12 -4 -19 -1 -8 3 -5 6 6 6 11 1 17 -2 13 -5z"/>
<path d="M5088 943 c7 -3 16 -2 19 1 4 3 -2 6 -13 5 -11 0 -14 -3 -6 -6z"/>
<path d="M5008 933 c7 -3 16 -2 19 1 4 3 -2 6 -13 5 -11 0 -14 -3 -6 -6z"/>
<path d="M4918 848 c6 -6 18 -8 28 -6 14 3 12 5 -9 10 -19 3 -25 2 -19 -4z"/>
<path d="M4810 1721 c-30 -3 -50 -9 -43 -13 6 -5 34 -6 62 -3 39 4 52 1 59
-11 12 -22 147 -33 140 -12 -3 9 -18 12 -44 10 -32 -3 -37 -1 -26 9 6 7 12 18
12 23 0 6 -5 5 -12 -2 -14 -14 -78 -16 -78 -2 0 6 -3 9 -7 8 -5 -1 -33 -4 -63
-7z"/>
<path d="M3780 1710 c0 -5 5 -10 11 -10 5 0 7 5 4 10 -3 6 -8 10 -11 10 -2 0
-4 -4 -4 -10z"/>
<path d="M5090 1710 c-23 -7 -23 -8 -3 -9 12 -1 25 4 28 9 3 6 5 10 3 9 -2 -1
-14 -5 -28 -9z"/>
<path d="M428 1703 c7 -3 16 -2 19 1 4 3 -2 6 -13 5 -11 0 -14 -3 -6 -6z"/>
<path d="M4689 1697 c14 -18 61 -23 61 -7 0 6 -9 10 -19 10 -11 0 -28 3 -38 7
-16 6 -16 5 -4 -10z"/>
<path d="M5720 1696 c6 -8 18 -12 26 -9 19 7 7 23 -18 23 -17 0 -18 -3 -8 -14z"/>
<path d="M585 1690 c3 -5 8 -10 11 -10 2 0 4 5 4 10 0 6 -5 10 -11 10 -5 0 -7
-4 -4 -10z"/>
<path d="M2035 1690 c27 -12 43 -12 25 0 -8 5 -22 9 -30 9 -10 0 -8 -3 5 -9z"/>
<path d="M2806 1691 c-10 -15 48 -20 74 -5 16 8 19 13 10 14 -9 0 -22 -6 -29
-12 -11 -10 -14 -10 -18 0 -5 14 -29 16 -37 3z"/>
<path d="M3998 1693 c7 -3 16 -2 19 1 4 3 -2 6 -13 5 -11 0 -14 -3 -6 -6z"/>
<path d="M3878 1683 c6 -2 18 -2 25 0 6 3 1 5 -13 5 -14 0 -19 -2 -12 -5z"/>
<path d="M1388 1673 c7 -3 16 -2 19 1 4 3 -2 6 -13 5 -11 0 -14 -3 -6 -6z"/>
<path d="M2694 1668 c-7 -11 38 -10 56 2 11 8 7 10 -18 8 -19 -1 -36 -6 -38
-10z"/>
<path d="M4854 1666 c23 -18 36 -20 36 -6 0 6 -4 10 -9 10 -5 0 -18 3 -28 6
-16 5 -16 4 1 -10z"/>
<path d="M4590 1660 c-12 -8 -10 -10 8 -10 13 0 20 4 17 10 -7 12 -6 12 -25 0z"/>
<path d="M5515 1655 l-30 -15 35 4 c20 2 45 -3 57 -11 20 -13 25 -13 45 2 l23
17 -22 -7 c-27 -8 -66 3 -58 16 9 13 -15 10 -50 -6z"/>
<path d="M2518 1653 c7 -3 16 -2 19 1 4 3 -2 6 -13 5 -11 0 -14 -3 -6 -6z"/>
<path d="M4068 1653 c7 -3 16 -2 19 1 4 3 -2 6 -13 5 -11 0 -14 -3 -6 -6z"/>
<path d="M4913 1643 c9 -2 25 -2 35 0 9 3 1 5 -18 5 -19 0 -27 -2 -17 -5z"/>
<path d="M5028 1643 c6 -2 18 -2 25 0 6 3 1 5 -13 5 -14 0 -19 -2 -12 -5z"/>
<path d="M2453 1633 c9 -2 23 -2 30 0 6 3 -1 5 -18 5 -16 0 -22 -2 -12 -5z"/>
<path d="M2558 1633 c6 -2 18 -2 25 0 6 3 1 5 -13 5 -14 0 -19 -2 -12 -5z"/>
<path d="M4450 1636 c0 -9 30 -14 35 -6 4 6 -3 10 -14 10 -12 0 -21 -2 -21 -4z"/>
<path d="M4350 1610 c0 -5 7 -10 16 -10 8 0 12 5 9 10 -3 6 -10 10 -16 10 -5
0 -9 -4 -9 -10z"/>
<path d="M4430 1610 c-13 -8 -12 -10 3 -10 9 0 17 5 17 10 0 12 -1 12 -20 0z"/>
<path d="M5514 1610 c-6 -6 -30 -12 -52 -13 -25 -1 -38 -5 -33 -10 13 -13 76
0 91 18 14 17 9 20 -6 5z"/>
<path d="M5635 1610 c-3 -5 3 -10 14 -10 12 0 21 5 21 10 0 6 -6 10 -14 10 -8
0 -18 -4 -21 -10z"/>
<path d="M6150 1610 c0 -5 7 -10 15 -10 8 0 15 5 15 10 0 6 -7 10 -15 10 -8 0
-15 -4 -15 -10z"/>
<path d="M4027 1599 c7 -7 15 -10 18 -7 3 3 -2 9 -12 12 -14 6 -15 5 -6 -5z"/>
<path d="M4270 1600 c-13 -8 -13 -10 2 -10 9 0 20 5 23 10 8 13 -5 13 -25 0z"/>
<path d="M488 1583 c7 -3 16 -2 19 1 4 3 -2 6 -13 5 -11 0 -14 -3 -6 -6z"/>
<path d="M528 1583 c6 -2 18 -2 25 0 6 3 1 5 -13 5 -14 0 -19 -2 -12 -5z"/>
<path d="M728 1563 c6 -2 18 -2 25 0 6 3 1 5 -13 5 -14 0 -19 -2 -12 -5z"/>
<path d="M1538 1563 c7 -3 16 -2 19 1 4 3 -2 6 -13 5 -11 0 -14 -3 -6 -6z"/>
<path d="M1608 1563 c7 -3 16 -2 19 1 4 3 -2 6 -13 5 -11 0 -14 -3 -6 -6z"/>
<path d="M5115 1560 c3 -5 15 -10 26 -10 11 0 17 5 14 10 -3 6 -15 10 -26 10
-11 0 -17 -4 -14 -10z"/>
<path d="M5280 1550 c-12 -8 -10 -10 10 -10 14 0 34 -7 44 -15 35 -26 54 -17
21 10 -32 26 -52 30 -75 15z"/>
<path d="M4108 1543 c6 -2 18 -2 25 0 6 3 1 5 -13 5 -14 0 -19 -2 -12 -5z"/>
<path d="M5033 1543 c-7 -3 -13 -9 -13 -14 0 -4 7 -6 15 -3 8 4 22 1 30 -6 9
-7 18 -11 21 -8 8 8 -40 35 -53 31z"/>
<path d="M5227 1529 c-4 -16 -3 -18 9 -8 16 13 19 29 5 29 -5 0 -11 -9 -14
-21z"/>
<path d="M5537 1539 c7 -7 15 -10 18 -7 3 3 -2 9 -12 12 -14 6 -15 5 -6 -5z"/>
<path d="M306 1529 c3 -5 12 -9 20 -9 8 0 14 -5 14 -11 0 -6 -9 -9 -20 -6 -11
3 -20 1 -20 -4 0 -5 8 -9 18 -10 9 0 34 -2 54 -5 20 -2 39 0 43 6 3 5 -2 10
-12 10 -10 0 -27 6 -38 13 -25 17 -67 28 -59 16z"/>
<path d="M1640 1529 c0 -5 5 -7 10 -4 6 3 10 8 10 11 0 2 -4 4 -10 4 -5 0 -10
-5 -10 -11z"/>
<path d="M4400 1530 c19 -13 30 -13 30 0 0 6 -10 10 -22 10 -19 0 -20 -2 -8
-10z"/>
<path d="M5101 1523 c7 -12 24 -19 46 -20 29 -1 33 1 22 12 -8 7 -29 16 -47
20 -31 6 -32 6 -21 -12z"/>
<path d="M215 1510 c3 -5 10 -10 16 -10 5 0 9 5 9 10 0 6 -7 10 -16 10 -8 0
-12 -4 -9 -10z"/>
<path d="M250 1500 c0 -5 5 -10 10 -10 6 0 10 5 10 10 0 6 -4 10 -10 10 -5 0
-10 -4 -10 -10z"/>
<path d="M4668 1503 c6 -2 18 -2 25 0 6 3 1 5 -13 5 -14 0 -19 -2 -12 -5z"/>
<path d="M5185 1490 c-16 -7 -17 -9 -3 -9 9 -1 20 4 23 9 7 11 7 11 -20 0z"/>
<path d="M2799 1458 c-11 -8 -11 -9 2 -5 9 3 21 1 27 -5 6 -6 12 -6 16 0 8 14
-29 22 -45 10z"/>
<path d="M118 1403 c7 -3 16 -2 19 1 4 3 -2 6 -13 5 -11 0 -14 -3 -6 -6z"/>
<path d="M6270 1360 c-14 -9 -7 -14 14 -11 4 1 15 -4 23 -10 11 -10 14 -10 11
2 -3 13 -18 29 -28 29 -3 0 -12 -5 -20 -10z"/>
<path d="M6506 1293 c-3 -3 -3 -10 0 -14 7 -12 34 -11 34 0 0 11 -26 22 -34
14z"/>
<path d="M4640 1170 c0 -9 39 -25 46 -18 2 3 -7 10 -21 16 -14 6 -25 7 -25 2z"/>
<path d="M1937 1159 c7 -7 15 -10 18 -7 3 3 -2 9 -12 12 -14 6 -15 5 -6 -5z"/>
<path d="M4570 1142 c0 -5 14 -7 30 -4 17 2 30 6 30 8 0 2 -13 4 -30 4 -16 0
-30 -4 -30 -8z"/>
<path d="M80 1129 c0 -5 5 -7 10 -4 6 3 10 8 10 11 0 2 -4 4 -10 4 -5 0 -10
-5 -10 -11z"/>
<path d="M3390 1129 c0 -5 5 -7 10 -4 6 3 10 8 10 11 0 2 -4 4 -10 4 -5 0 -10
-5 -10 -11z"/>
<path d="M5613 1103 c9 -2 23 -2 30 0 6 3 -1 5 -18 5 -16 0 -22 -2 -12 -5z"/>
<path d="M108 1093 c6 -2 18 -2 25 0 6 3 1 5 -13 5 -14 0 -19 -2 -12 -5z"/>
<path d="M2950 1088 c0 -11 28 -10 35 1 3 6 -4 9 -15 8 -11 -1 -20 -5 -20 -9z"/>
<path d="M5395 1090 c27 -12 43 -12 25 0 -8 5 -22 9 -30 9 -10 0 -8 -3 5 -9z"/>
<path d="M6445 1070 c3 -5 18 -10 32 -10 32 0 28 5 -10 14 -19 4 -26 3 -22 -4z"/>
<path d="M5523 1063 c9 -2 25 -2 35 0 9 3 1 5 -18 5 -19 0 -27 -2 -17 -5z"/>
<path d="M1895 1050 c-3 -6 2 -10 12 -10 10 0 29 -3 43 -6 24 -5 24 -5 5 7
-27 17 -53 21 -60 9z"/>
<path d="M2990 1046 c12 -16 40 -11 40 6 0 6 -6 5 -15 -2 -10 -9 -15 -9 -15
-1 0 6 -5 11 -11 11 -8 0 -8 -4 1 -14z"/>
<path d="M268 1033 c7 -3 16 -2 19 1 4 3 -2 6 -13 5 -11 0 -14 -3 -6 -6z"/>
<path d="M6310 1030 c0 -5 12 -10 28 -9 24 0 25 1 7 9 -27 12 -35 12 -35 0z"/>
<path d="M205 1000 c-16 -7 -14 -9 12 -7 17 0 29 5 27 9 -6 10 -13 9 -39 -2z"/>
<path d="M447 999 c7 -7 15 -10 18 -7 3 3 -2 9 -12 12 -14 6 -15 5 -6 -5z"/>
<path d="M160 969 c0 -5 5 -7 10 -4 6 3 10 8 10 11 0 2 -4 4 -10 4 -5 0 -10
-5 -10 -11z"/>
<path d="M3000 965 c7 -8 18 -15 24 -14 7 0 6 2 -2 6 -6 2 -10 9 -6 14 3 5 -2
9 -12 9 -13 0 -14 -3 -4 -15z"/>
<path d="M1900 950 c8 -5 24 -10 34 -10 26 0 18 6 -19 14 -22 5 -26 4 -15 -4z"/>
<path d="M117 939 c7 -7 15 -10 18 -7 3 3 -2 9 -12 12 -14 6 -15 5 -6 -5z"/>
<path d="M2968 942 c-10 -2 -18 -7 -18 -12 0 -5 7 -7 15 -4 8 4 22 1 30 -6 8
-6 20 -10 26 -8 18 6 -33 35 -53 30z"/>
<path d="M6190 940 c-12 -8 -9 -10 13 -10 16 0 26 4 22 10 -8 12 -16 12 -35 0z"/>
<path d="M6233 914 c-17 -13 -16 -14 12 -8 37 8 51 19 26 21 -11 1 -27 -5 -38
-13z"/>
<path d="M30 890 c0 -5 7 -7 15 -4 8 4 15 8 15 10 0 2 -7 4 -15 4 -8 0 -15 -4
-15 -10z"/>
<path d="M5636 886 c4 -11 18 -16 42 -16 43 0 33 16 -16 26 -27 6 -31 4 -26
-10z"/>
<path d="M6286 892 c-2 -4 15 -16 39 -27 24 -10 46 -27 48 -36 3 -9 19 -20 36
-24 17 -3 29 -11 28 -17 -3 -17 47 -30 76 -19 31 12 37 36 7 28 -26 -7 -25 0
3 24 18 15 20 20 8 28 -10 6 -22 6 -34 0 -10 -6 -26 -7 -35 -4 -9 4 -35 9 -57
12 -44 4 -95 24 -95 35 0 10 -17 10 -24 0z"/>
<path d="M568 883 c7 -3 16 -2 19 1 4 3 -2 6 -13 5 -11 0 -14 -3 -6 -6z"/>
<path d="M5458 883 c6 -2 18 -2 25 0 6 3 1 5 -13 5 -14 0 -19 -2 -12 -5z"/>
<path d="M3338 863 c7 -3 16 -2 19 1 4 3 -2 6 -13 5 -11 0 -14 -3 -6 -6z"/>
<path d="M358 824 c26 -18 92 -28 92 -13 0 6 -9 7 -21 4 -12 -4 -24 -3 -28 2
-3 6 -19 13 -36 17 l-30 7 23 -17z"/>
<path d="M3008 833 c6 -2 18 -2 25 0 6 3 1 5 -13 5 -14 0 -19 -2 -12 -5z"/>
<path d="M580 822 c0 -6 -9 -8 -20 -5 -16 4 -19 2 -14 -11 5 -14 2 -15 -17 -8
-13 5 -35 6 -49 2 -24 -6 -23 -7 10 -14 44 -9 121 -17 98 -10 -22 7 -23 13 -1
29 11 8 13 14 5 19 -7 4 -12 3 -12 -2z"/>
<path d="M1488 823 c6 -2 18 -2 25 0 6 3 1 5 -13 5 -14 0 -19 -2 -12 -5z"/>
<path d="M690 816 c0 -9 30 -14 35 -6 4 6 -3 10 -14 10 -12 0 -21 -2 -21 -4z"/>
<path d="M660 800 c0 -5 -7 -10 -15 -10 -8 0 -15 -4 -15 -10 0 -13 43 4 48 18
2 7 -1 12 -7 12 -6 0 -11 -4 -11 -10z"/>
<path d="M325 790 c-3 -6 1 -7 9 -4 18 7 21 14 7 14 -6 0 -13 -4 -16 -10z"/>
<path d="M226 762 c-2 -4 10 -8 29 -8 19 0 31 4 29 8 -3 4 -16 8 -29 8 -13 0
-26 -4 -29 -8z"/>
<path d="M2960 765 c0 -7 30 -13 34 -7 3 4 -4 9 -15 9 -10 1 -19 0 -19 -2z"/>
<path d="M3868 763 c6 -2 18 -2 25 0 6 3 1 5 -13 5 -14 0 -19 -2 -12 -5z"/>
<path d="M436 746 c-29 -13 -22 -31 8 -20 9 3 23 1 31 -6 11 -9 23 -9 44 -2
16 6 32 8 35 5 3 -4 6 -1 6 5 0 6 21 -1 48 -15 l47 -26 -24 26 c-28 31 -102
47 -126 27 -15 -13 -39 -5 -30 11 8 12 -3 10 -39 -5z"/>
<path d="M708 743 c7 -3 16 -2 19 1 4 3 -2 6 -13 5 -11 0 -14 -3 -6 -6z"/>
<path d="M1352 733 c-11 -11 -6 -13 23 -13 19 0 35 4 35 9 0 15 -45 18 -58 4z"/>
<path d="M4000 740 c0 -5 4 -10 9 -10 6 0 13 5 16 10 3 6 -1 10 -9 10 -9 0
-16 -4 -16 -10z"/>
<path d="M205 730 c-3 -5 -1 -10 4 -10 6 0 11 5 11 10 0 6 -2 10 -4 10 -3 0
-8 -4 -11 -10z"/>
<path d="M1448 723 c7 -3 16 -2 19 1 4 3 -2 6 -13 5 -11 0 -14 -3 -6 -6z"/>
<path d="M380 706 c0 -2 7 -7 16 -10 8 -3 12 -2 9 4 -6 10 -25 14 -25 6z"/>
<path d="M1308 703 c7 -3 16 -2 19 1 4 3 -2 6 -13 5 -11 0 -14 -3 -6 -6z"/>
<path d="M1608 703 c7 -3 16 -2 19 1 4 3 -2 6 -13 5 -11 0 -14 -3 -6 -6z"/>
<path d="M3905 680 c4 -6 11 -8 16 -5 14 9 11 15 -7 15 -8 0 -12 -5 -9 -10z"/>
<path d="M5470 685 c0 -10 29 -24 34 -17 3 6 -3 12 -14 15 -11 3 -20 4 -20 2z"/>
<path d="M6331 663 c-12 -13 -11 -14 9 -8 14 4 25 3 30 -5 4 -7 13 -9 20 -5
10 6 9 11 -5 22 -24 17 -37 16 -54 -4z"/>
<path d="M3470 650 c20 -13 33 -13 25 0 -3 6 -14 10 -23 10 -15 0 -15 -2 -2
-10z"/>
<path d="M4688 653 c7 -3 16 -2 19 1 4 3 -2 6 -13 5 -11 0 -14 -3 -6 -6z"/>
<path d="M5579 647 c7 -10 9 -17 3 -17 -6 0 -18 -3 -28 -7 -12 -4 -15 -3 -10
5 5 8 -2 12 -20 12 -22 0 -24 -2 -14 -15 15 -18 6 -34 -18 -30 -9 1 -11 0 -4
-2 15 -6 16 -20 1 -29 -17 -10 34 -34 59 -27 20 5 20 6 4 31 l-16 25 29 -7
c23 -6 27 -5 18 5 -9 9 -7 16 10 29 l21 17 -25 13 c-22 12 -23 12 -10 -3z
m-42 -93 c-3 -3 -12 -4 -19 -1 -8 3 -5 6 6 6 11 1 17 -2 13 -5z"/>
<path d="M1528 633 c12 -2 32 -2 45 0 12 2 2 4 -23 4 -25 0 -35 -2 -22 -4z"/>
<path d="M2008 633 c7 -3 16 -2 19 1 4 3 -2 6 -13 5 -11 0 -14 -3 -6 -6z"/>
<path d="M4772 625 c9 -10 21 -16 28 -13 7 2 -1 10 -16 17 -27 12 -28 11 -12
-4z"/>
<path d="M6220 631 l-25 -7 25 -8 c14 -4 39 -15 56 -23 29 -15 33 -15 55 1
l24 18 -32 -7 c-32 -6 -46 7 -20 19 6 4 2 4 -10 2 -13 -2 -26 0 -29 5 -6 10
-9 10 -44 0z"/>
<path d="M6495 624 l-30 -13 30 6 c32 6 41 11 34 17 -2 2 -17 -2 -34 -10z"/>
<path d="M5600 615 c-10 -12 -10 -15 3 -15 8 0 20 7 27 15 10 12 10 15 -3 15
-8 0 -20 -7 -27 -15z"/>
<path d="M556 610 c-16 -5 -17 -8 -6 -15 11 -7 4 -13 -25 -27 -28 -12 -34 -18
-19 -18 12 0 32 9 46 19 15 13 33 18 46 14 13 -3 22 -1 22 6 0 6 -9 11 -19 11
-11 0 -21 4 -23 9 -1 4 -12 5 -22 1z"/>
<path d="M638 613 c7 -3 16 -2 19 1 4 3 -2 6 -13 5 -11 0 -14 -3 -6 -6z"/>
<path d="M3425 610 l-30 -8 32 -1 c17 0 35 4 38 9 7 11 3 11 -40 0z"/>
<path d="M3508 613 c7 -3 16 -2 19 1 4 3 -2 6 -13 5 -11 0 -14 -3 -6 -6z"/>
<path d="M4720 610 c-9 -6 -10 -10 -3 -10 6 0 15 5 18 10 8 12 4 12 -15 0z"/>
<path d="M5708 613 c7 -3 16 -2 19 1 4 3 -2 6 -13 5 -11 0 -14 -3 -6 -6z"/>
<path d="M6148 608 c6 -6 18 -8 28 -6 14 3 12 5 -9 10 -19 3 -25 2 -19 -4z"/>
<path d="M433 603 c10 -9 56 -10 51 -1 -3 4 -17 8 -31 8 -15 0 -23 -3 -20 -7z"/>
<path d="M1160 595 c-11 -13 -10 -14 4 -9 9 3 16 10 16 15 0 13 -6 11 -20 -6z"/>
<path d="M4668 603 c7 -3 16 -2 19 1 4 3 -2 6 -13 5 -11 0 -14 -3 -6 -6z"/>
<path d="M4770 585 c33 -19 49 -19 24 0 -10 8 -26 14 -34 14 -9 0 -4 -6 10
-14z"/>
<path d="M6353 593 c-27 -10 43 -57 100 -66 41 -7 17 17 -35 33 -60 19 -64 22
-42 31 12 5 13 8 4 8 -8 -1 -20 -3 -27 -6z"/>
<path d="M635 579 c-4 -6 -5 -12 -2 -15 2 -3 7 2 10 11 7 17 1 20 -8 4z"/>
<path d="M738 583 c7 -3 16 -2 19 1 4 3 -2 6 -13 5 -11 0 -14 -3 -6 -6z"/>
<path d="M6508 583 c7 -3 16 -2 19 1 4 3 -2 6 -13 5 -11 0 -14 -3 -6 -6z"/>
<path d="M226 573 c-3 -3 -1 -12 5 -20 9 -9 8 -13 0 -13 -6 0 -11 -5 -11 -11
0 -8 5 -8 15 1 8 7 15 18 15 26 0 15 -15 26 -24 17z"/>
<path d="M455 570 c3 -5 11 -10 16 -10 6 0 7 5 4 10 -3 6 -11 10 -16 10 -6 0
-7 -4 -4 -10z"/>
<path d="M2965 570 c4 -6 11 -8 16 -5 14 9 11 15 -7 15 -8 0 -12 -5 -9 -10z"/>
<path d="M5720 569 c0 -5 5 -7 10 -4 6 3 10 8 10 11 0 2 -4 4 -10 4 -5 0 -10
-5 -10 -11z"/>
<path d="M317 554 c5 -13 3 -16 -9 -11 -9 3 -19 0 -21 -7 -4 -10 4 -10 39 -1
49 12 68 25 36 25 -11 0 -28 3 -36 6 -12 5 -15 2 -9 -12z"/>
<path d="M5754 561 c4 -5 35 -13 71 -16 35 -4 70 -14 76 -21 6 -8 24 -14 40
-14 16 0 29 -4 29 -8 0 -10 81 -32 116 -32 22 0 24 3 15 14 -10 11 -6 16 16
25 28 11 27 11 -9 8 -32 -2 -35 -1 -27 14 8 15 5 17 -19 9 -17 -4 -36 -3 -47
2 -10 6 -40 8 -67 5 -27 -4 -59 -2 -71 2 -37 14 -129 23 -123 12z"/>
<path d="M4566 536 c10 -8 21 -12 24 -10 5 6 -21 24 -34 24 -6 0 -1 -6 10 -14z"/>
<path d="M4678 543 c7 -3 16 -2 19 1 4 3 -2 6 -13 5 -11 0 -14 -3 -6 -6z"/>
<path d="M5620 530 c0 -5 5 -10 11 -10 5 0 7 5 4 10 -3 6 -8 10 -11 10 -2 0
-4 -4 -4 -10z"/>
<path d="M4520 521 c0 -5 9 -11 20 -14 24 -6 27 8 4 17 -21 8 -24 8 -24 -3z"/>
<path d="M1548 513 c6 -2 18 -2 25 0 6 3 1 5 -13 5 -14 0 -19 -2 -12 -5z"/>
<path d="M3737 509 c7 -7 15 -10 18 -7 3 3 -2 9 -12 12 -14 6 -15 5 -6 -5z"/>
<path d="M5858 513 c7 -3 16 -2 19 1 4 3 -2 6 -13 5 -11 0 -14 -3 -6 -6z"/>
<path d="M6498 513 c7 -3 16 -2 19 1 4 3 -2 6 -13 5 -11 0 -14 -3 -6 -6z"/>
<path d="M0 500 c0 -5 5 -10 10 -10 6 0 10 5 10 10 0 6 -4 10 -10 10 -5 0 -10
-4 -10 -10z"/>
<path d="M128 503 c6 -2 18 -2 25 0 6 3 1 5 -13 5 -14 0 -19 -2 -12 -5z"/>
<path d="M585 500 c-3 -5 -1 -10 4 -10 6 0 11 5 11 10 0 6 -2 10 -4 10 -3 0
-8 -4 -11 -10z"/>
<path d="M3710 501 c0 -10 19 -25 25 -20 1 2 -3 10 -11 17 -8 7 -14 8 -14 3z"/>
<path d="M6440 500 c0 -5 5 -10 10 -10 6 0 10 5 10 10 0 6 -4 10 -10 10 -5 0
-10 -4 -10 -10z"/>
<path d="M3010 496 c0 -2 7 -7 16 -10 8 -3 12 -2 9 4 -6 10 -25 14 -25 6z"/>
<path d="M3660 490 c-9 -6 -10 -10 -3 -10 6 0 15 5 18 10 8 12 4 12 -15 0z"/>
<path d="M3775 490 c-28 -7 -28 -8 -5 -9 14 0 32 4 40 9 17 11 8 11 -35 0z"/>
<path d="M4578 493 c7 -3 16 -2 19 1 4 3 -2 6 -13 5 -11 0 -14 -3 -6 -6z"/>
<path d="M5577 489 c13 -13 67 -23 60 -12 -4 6 -20 13 -37 15 -17 3 -27 1 -23
-3z"/>
<path d="M690 471 c0 -15 89 -54 110 -48 11 3 20 1 20 -4 0 -15 21 -10 48 13
20 15 22 19 7 13 -27 -10 -34 -10 -80 -1 -34 6 -56 14 -97 34 -5 2 -8 -1 -8
-7z"/>
<path d="M2560 470 c20 -13 33 -13 25 0 -3 6 -14 10 -23 10 -15 0 -15 -2 -2
-10z"/>
<path d="M662 454 c10 -10 20 -16 22 -13 3 3 -5 11 -17 18 -21 13 -21 12 -5
-5z"/>
<path d="M5822 453 c7 -9 15 -10 21 -4 8 8 71 -20 87 -39 9 -11 45 14 48 32 2
15 -5 18 -50 18 -29 0 -67 1 -85 3 -26 2 -30 1 -21 -10z"/>
<path d="M6200 460 c0 -5 8 -11 18 -11 113 -10 179 3 79 15 -73 8 -97 8 -97
-4z"/>
<path d="M3538 443 c7 -3 16 -2 19 1 4 3 -2 6 -13 5 -11 0 -14 -3 -6 -6z"/>
<path d="M6360 430 c-9 -6 -10 -10 -3 -10 6 0 15 5 18 10 8 12 4 12 -15 0z"/>
<path d="M308 423 c7 -3 16 -2 19 1 4 3 -2 6 -13 5 -11 0 -14 -3 -6 -6z"/>
<path d="M6060 421 l-25 -7 25 -5 c30 -6 50 -1 50 12 0 10 -14 10 -50 0z"/>
<path d="M465 410 c3 -5 10 -10 16 -10 5 0 9 5 9 10 0 6 -7 10 -16 10 -8 0
-12 -4 -9 -10z"/>
<path d="M730 405 c7 -8 17 -15 22 -15 6 0 5 7 -2 15 -7 8 -17 15 -22 15 -6 0
-5 -7 2 -15z"/>
<path d="M4728 413 c7 -3 16 -2 19 1 4 3 -2 6 -13 5 -11 0 -14 -3 -6 -6z"/>
<path d="M5120 410 c0 -5 7 -7 15 -4 8 4 15 8 15 10 0 2 -7 4 -15 4 -8 0 -15
-4 -15 -10z"/>
<path d="M5170 410 c-8 -5 -11 -12 -7 -16 4 -4 15 0 24 9 18 18 8 23 -17 7z"/>
<path d="M418 398 c5 -5 16 -8 23 -6 8 3 3 7 -10 11 -17 4 -21 3 -13 -5z"/>
<path d="M680 403 c0 -17 82 -55 94 -43 7 7 5 10 -6 10 -9 0 -33 9 -52 21 -20
12 -36 17 -36 12z"/>
<path d="M6000 400 c-13 -8 -13 -10 2 -10 9 0 20 5 23 10 8 13 -5 13 -25 0z"/>
<path d="M6444 399 c-3 -6 -17 -8 -31 -4 -16 4 -22 2 -18 -5 3 -5 1 -10 -4
-10 -6 0 -11 -4 -11 -9 0 -5 17 -10 38 -10 60 0 72 -2 72 -12 0 -5 -10 -9 -22
-9 -22 -1 -21 -2 5 -16 15 -8 27 -18 27 -23 0 -5 9 -11 20 -14 17 -4 20 0 20
34 0 28 -4 39 -15 39 -8 0 -15 5 -15 10 0 6 8 10 18 10 14 1 15 2 2 9 -27 15
-79 21 -86 10z"/>
<path d="M568 393 c7 -3 16 -2 19 1 4 3 -2 6 -13 5 -11 0 -14 -3 -6 -6z"/>
<path d="M809 376 c13 -15 13 -19 0 -27 -8 -5 -18 -9 -23 -9 -6 0 -5 -5 2 -12
9 -9 17 -7 35 10 13 12 31 22 40 22 9 0 19 5 22 10 4 6 -6 10 -24 10 -16 0
-38 3 -48 7 -16 6 -17 5 -4 -11z"/>
<path d="M3128 383 c7 -3 16 -2 19 1 4 3 -2 6 -13 5 -11 0 -14 -3 -6 -6z"/>
<path d="M3910 380 c-8 -5 -10 -10 -5 -10 6 0 17 5 25 10 8 5 11 10 5 10 -5 0
-17 -5 -25 -10z"/>
<path d="M5228 383 c7 -3 16 -2 19 1 4 3 -2 6 -13 5 -11 0 -14 -3 -6 -6z"/>
<path d="M6133 383 c9 -2 23 -2 30 0 6 3 -1 5 -18 5 -16 0 -22 -2 -12 -5z"/>
<path d="M6207 375 c-18 -13 -18 -14 3 -25 11 -6 30 -8 41 -5 11 4 25 2 32 -3
18 -14 45 -11 61 7 18 20 5 48 -15 35 -13 -8 -57 -7 -89 1 -8 2 -23 -2 -33
-10z"/>
<path d="M395 365 l-30 -12 50 -5 c28 -2 64 -1 80 3 31 7 29 9 -19 15 -16 2
-34 5 -40 7 -7 3 -25 -1 -41 -8z"/>
<path d="M2418 373 c7 -3 16 -2 19 1 4 3 -2 6 -13 5 -11 0 -14 -3 -6 -6z"/>
<path d="M5621 359 c-13 -5 -22 -11 -20 -14 8 -7 49 7 49 16 0 5 -1 9 -2 8 -2
0 -14 -5 -27 -10z"/>
<path d="M648 353 c7 -3 16 -2 19 1 4 3 -2 6 -13 5 -11 0 -14 -3 -6 -6z"/>
<path d="M920 350 c-9 -6 -10 -10 -3 -10 6 0 15 5 18 10 8 12 4 12 -15 0z"/>
<path d="M1508 353 c7 -3 16 -2 19 1 4 3 -2 6 -13 5 -11 0 -14 -3 -6 -6z"/>
<path d="M3938 353 c7 -3 16 -2 19 1 4 3 -2 6 -13 5 -11 0 -14 -3 -6 -6z"/>
<path d="M2750 339 c0 -5 11 -9 25 -9 14 0 25 2 25 4 0 2 -11 6 -25 8 -14 3
-25 1 -25 -3z"/>
<path d="M5800 340 c0 -5 7 -7 15 -4 8 4 15 8 15 10 0 2 -7 4 -15 4 -8 0 -15
-4 -15 -10z"/>
<path d="M6345 340 c-3 -5 1 -10 9 -10 9 0 16 5 16 10 0 6 -4 10 -9 10 -6 0
-13 -4 -16 -10z"/>
<path d="M4075 330 c4 -6 19 -9 33 -8 19 2 26 -1 24 -11 -3 -12 -1 -12 13 -1
16 13 16 15 -2 21 -28 12 -75 10 -68 -1z"/>
<path d="M4605 330 c3 -5 8 -10 11 -10 2 0 4 5 4 10 0 6 -5 10 -11 10 -5 0 -7
-4 -4 -10z"/>
<path d="M5665 330 c-3 -5 1 -10 9 -10 9 0 16 5 16 10 0 6 -4 10 -9 10 -6 0
-13 -4 -16 -10z"/>
<path d="M517 303 c32 -26 58 -30 50 -9 -3 8 -1 17 6 19 7 2 -10 6 -36 8 l-48
4 28 -22z"/>
<path d="M711 326 c2 -2 15 -9 29 -16 23 -12 24 -12 11 3 -7 10 -20 17 -29 17
-8 0 -13 -2 -11 -4z"/>
<path d="M2810 306 c0 -2 9 -6 20 -9 11 -3 20 -1 20 4 0 5 -9 9 -20 9 -11 0
-20 -2 -20 -4z"/>
<path d="M2946 298 c3 -4 13 -8 22 -8 13 0 14 -2 4 -9 -11 -7 -11 -9 0 -14 8
-3 19 3 26 13 10 16 7 18 -23 22 -18 2 -31 0 -29 -4z"/>
<path d="M5648 303 c7 -3 16 -2 19 1 4 3 -2 6 -13 5 -11 0 -14 -3 -6 -6z"/>
<path d="M1110 290 c20 -13 33 -13 25 0 -3 6 -14 10 -23 10 -15 0 -15 -2 -2
-10z"/>
<path d="M2898 293 c7 -3 16 -2 19 1 4 3 -2 6 -13 5 -11 0 -14 -3 -6 -6z"/>
<path d="M3539 290 c-16 -3 -24 -12 -25 -27 0 -18 7 -22 42 -28 26 -4 52 -2
65 5 16 9 32 9 64 1 55 -14 95 -14 95 -1 0 6 -11 10 -24 10 -14 0 -28 5 -32
11 -3 6 -17 8 -30 5 -18 -5 -26 -2 -32 11 -5 14 -18 18 -53 18 -26 0 -57 -2
-70 -5z"/>
<path d="M4098 293 c7 -3 16 -2 19 1 4 3 -2 6 -13 5 -11 0 -14 -3 -6 -6z"/>
<path d="M6310 296 c0 -2 7 -7 16 -10 8 -3 12 -2 9 4 -6 10 -25 14 -25 6z"/>
<path d="M5085 280 c3 -6 20 -10 37 -10 38 0 34 5 -10 13 -21 4 -31 3 -27 -3z"/>
<path d="M1400 253 c-22 -14 -47 -23 -54 -20 -7 3 -19 1 -27 -4 -12 -7 -12 -9
0 -9 11 0 11 -3 -3 -13 -16 -12 -16 -14 7 -26 21 -11 33 -11 81 3 33 10 56 22
56 30 0 8 7 16 15 20 19 7 9 33 -15 39 -10 2 -37 -6 -60 -20z"/>
<path d="M6356 259 c-11 -10 -15 -19 -9 -19 5 0 18 9 28 20 23 26 6 25 -19 -1z"/>
<path d="M588 258 c9 -9 15 -9 24 0 9 9 7 12 -12 12 -19 0 -21 -3 -12 -12z"/>
<path d="M1922 254 c14 -14 21 -15 30 -6 8 8 9 12 1 12 -6 0 -20 3 -30 6 -17
7 -17 6 -1 -12z"/>
<path d="M1980 260 c-9 -6 -10 -10 -3 -10 6 0 15 5 18 10 8 12 4 12 -15 0z"/>
<path d="M2168 258 c12 -6 22 -15 22 -20 0 -12 14 -10 36 7 18 15 18 15 -7 9
-15 -3 -30 -1 -33 5 -4 6 -15 11 -24 10 -13 0 -12 -3 6 -11z"/>
<path d="M2785 261 c-3 -5 0 -13 5 -16 7 -5 5 -12 -7 -22 -16 -13 -16 -14 -1
-9 10 3 20 1 23 -3 8 -14 -43 -23 -65 -11 -10 5 -25 10 -32 9 -9 0 -9 -2 2 -7
8 -4 26 -15 40 -24 14 -9 39 -19 55 -22 17 -3 49 -10 73 -16 51 -12 62 -8 62
26 0 16 6 24 18 24 14 0 15 2 2 10 -8 5 -17 6 -20 2 -3 -4 -20 -8 -39 -9 -52
-4 -23 18 33 24 46 6 65 23 25 23 -14 0 -19 5 -16 13 4 11 -6 14 -39 13 -24
-1 -44 -3 -44 -6 0 -3 -11 -7 -25 -8 -14 -1 -25 3 -25 8 0 13 -17 13 -25 1z"/>
<path d="M748 253 c7 -3 16 -2 19 1 4 3 -2 6 -13 5 -11 0 -14 -3 -6 -6z"/>
<path d="M3811 244 c6 -8 25 -14 41 -14 24 0 28 3 19 13 -6 8 -25 14 -42 15
-25 1 -28 -2 -18 -14z"/>
<path d="M4060 250 c-11 -7 -5 -8 20 -4 43 8 51 14 19 14 -13 0 -31 -5 -39
-10z"/>
<path d="M6485 250 c4 -6 11 -8 16 -5 14 9 11 15 -7 15 -8 0 -12 -5 -9 -10z"/>
<path d="M4808 233 c6 -2 18 -2 25 0 6 3 1 5 -13 5 -14 0 -19 -2 -12 -5z"/>
<path d="M5185 230 c27 -12 43 -12 25 0 -8 5 -22 9 -30 9 -10 0 -8 -3 5 -9z"/>
<path d="M5908 233 c-9 -2 -19 -11 -22 -19 -4 -12 -2 -12 14 -4 15 8 40 33 28
29 -2 -1 -10 -3 -20 -6z"/>
<path d="M6390 230 c-9 -6 -10 -10 -3 -10 6 0 15 5 18 10 8 12 4 12 -15 0z"/>
<path d="M6440 230 c20 -13 43 -13 35 0 -3 6 -16 10 -28 10 -18 0 -19 -2 -7
-10z"/>
<path d="M2140 226 c0 -9 30 -14 35 -6 4 6 -3 10 -14 10 -12 0 -21 -2 -21 -4z"/>
<path d="M3529 216 c9 -11 24 -16 38 -13 13 2 23 1 23 -3 0 -4 13 -13 30 -20
16 -7 27 -16 24 -21 -3 -5 -1 -9 5 -9 5 0 16 -2 23 -5 8 -3 20 4 27 19 8 14
19 22 27 19 19 -7 18 11 -1 27 -11 9 -18 10 -28 1 -16 -13 -115 -4 -162 15
-18 7 -19 6 -6 -10z"/>
<path d="M1852 207 c-12 -7 -41 -12 -63 -11 -45 2 -41 -10 6 -20 23 -5 37 0
60 19 33 27 32 31 -3 12z"/>
<path d="M1930 209 c0 -5 5 -7 10 -4 6 3 10 8 10 11 0 2 -4 4 -10 4 -5 0 -10
-5 -10 -11z"/>
<path d="M6185 213 c-16 -3 -34 -9 -40 -15 -7 -6 -5 -9 5 -8 25 3 63 -12 50
-20 -7 -4 9 -11 36 -15 87 -14 113 -14 120 -3 5 8 1 9 -10 5 -18 -7 -130 45
-119 56 3 4 2 6 -3 6 -5 -1 -22 -4 -39 -6z"/>
<path d="M3838 203 c7 -3 16 -2 19 1 4 3 -2 6 -13 5 -11 0 -14 -3 -6 -6z"/>
<path d="M5950 201 c-20 -6 -22 -8 -8 -13 9 -4 22 -1 28 8 7 8 11 14 9 13 -2
-1 -15 -4 -29 -8z"/>
<path d="M3920 180 c8 -5 20 -10 25 -10 6 0 3 5 -5 10 -8 5 -19 10 -25 10 -5
0 -3 -5 5 -10z"/>
<path d="M5998 176 c-34 -12 -36 -22 -6 -29 12 -4 19 -9 16 -13 -4 -3 -21 -2
-37 4 -32 11 -40 5 -19 -16 19 -19 42 -14 68 13 19 20 33 25 71 25 39 0 47 3
43 15 -4 8 -11 12 -17 8 -15 -9 -81 -13 -87 -4 -3 4 -17 3 -32 -3z"/>
<path d="M4352 123 c-22 -4 -23 -5 -5 -18 24 -19 29 -18 29 5 0 11 0 19 -1 19
0 -1 -10 -4 -23 -6z"/>
<path d="M4788 123 c-16 -3 -28 -11 -28 -19 0 -11 4 -12 19 -4 25 13 31 13 31
-2 0 -9 18 -14 51 -15 42 -1 50 1 47 15 -3 13 -13 17 -41 16 -20 -1 -37 3 -37
7 0 5 -3 8 -7 8 -5 -1 -20 -4 -35 -6z"/>
<path d="M5280 110 c0 -5 6 -10 14 -10 8 0 18 5 21 10 3 6 -3 10 -14 10 -12 0
-21 -4 -21 -10z"/>
<path d="M5435 110 c-3 -5 -1 -10 4 -10 6 0 11 5 11 10 0 6 -2 10 -4 10 -3 0
-8 -4 -11 -10z"/>
<path d="M4420 106 c0 -2 7 -7 16 -10 8 -3 12 -2 9 4 -6 10 -25 14 -25 6z"/>
<path d="M4920 99 c0 -5 5 -7 10 -4 6 3 10 8 10 11 0 2 -4 4 -10 4 -5 0 -10
-5 -10 -11z"/>
<path d="M3228 73 c6 -2 18 -2 25 0 6 3 1 5 -13 5 -14 0 -19 -2 -12 -5z"/>
<path d="M4990 70 c-10 -6 -2 -9 27 -7 24 1 37 5 30 9 -16 10 -39 10 -57 -2z"/>
</g>
</svg>
